<svg xmlns="http://www.w3.org/2000/svg" xmlns:svg="http://www.w3.org/2000/svg" id="svg2" width="13" height="110" version="1.1"><metadata id="metadata7"/><g id="layer2" display="none" transform="translate(-505,-869.36218)"><rect id="rect4646" width="13" height="13" x="505" y="885.362" fill="#b3b3b3" fill-opacity="1" fill-rule="evenodd" stroke="none"/><rect id="rect4646-4" width="13" height="13" x="505" y="901.362" fill="#b3b3b3" fill-opacity="1" fill-rule="evenodd" stroke="none"/><rect id="rect4646-4-6" width="13" height="13" x="505" y="917.362" fill="#b3b3b3" fill-opacity="1" fill-rule="evenodd" stroke="none"/><rect id="rect4646-4-6-9" width="13" height="13" x="505" y="933.362" fill="#b3b3b3" fill-opacity="1" fill-rule="evenodd" stroke="none"/><rect id="rect4646-4-6-6" width="13" height="13" x="505" y="950.362" fill="#b3b3b3" fill-opacity="1" fill-rule="evenodd" stroke="none"/><rect id="rect4646-4-6-2" width="13" height="13" x="505" y="966.362" fill="#b3b3b3" fill-opacity="1" fill-rule="evenodd" stroke="none"/><rect id="rect4646-44" width="13" height="13" x="505" y="869.362" fill="#b3b3b3" fill-opacity="1" fill-rule="evenodd" stroke="none" display="inline"/></g><g id="layer1" display="none" transform="translate(-505,-869.36218)"><path id="path3194" fill="none" stroke="#06f" stroke-dasharray="none" stroke-linecap="butt" stroke-linejoin="miter" stroke-miterlimit="4" stroke-opacity="1" stroke-width="1.5" d="m 507,870.36218 0,5 3,0 4,4 0,-13 -4,4 z"/><path id="path3196" fill="none" stroke="#5b9dff" stroke-dasharray="none" stroke-linecap="round" stroke-linejoin="miter" stroke-miterlimit="4" stroke-opacity="1" stroke-width="1.5" d="m 517,869.36218 c 1,2 1,5 0,7"/><path id="path3198" fill="none" stroke="#5b9dff" stroke-dasharray="none" stroke-linecap="round" stroke-linejoin="miter" stroke-miterlimit="4" stroke-opacity="1" stroke-width="1.5" d="m 520,867.36218 c 2,2 2,9 0,11"/><path id="path3200" fill="none" stroke="#06f" stroke-dasharray="none" stroke-linecap="butt" stroke-linejoin="miter" stroke-miterlimit="4" stroke-opacity="1" stroke-width="1.5" d="m 507.93861,989.90562 0,15.99988 13,0 0,-10.99988 -5,-5 z"/><path id="path3202" fill="none" stroke="#06f" stroke-dasharray="none" stroke-linecap="butt" stroke-linejoin="miter" stroke-miterlimit="4" stroke-opacity="1" stroke-width="1.5" d="m 506.93861,918.90546 0,11.5 15,0 0,-11.5 z"/><path id="path3204" fill="none" stroke="#06f" stroke-dasharray="none" stroke-linecap="butt" stroke-linejoin="miter" stroke-miterlimit="4" stroke-opacity="1" stroke-width="1.5" d="m 506.93861,918.90546 7.5,6 7.5,-6"/><path id="path3212" fill="none" stroke="#5b9dff" stroke-dasharray="none" stroke-linecap="butt" stroke-linejoin="miter" stroke-miterlimit="4" stroke-opacity="1" stroke-width="1.5" d="m 507.93861,890.90546 3,0"/><path id="path3214" fill="none" stroke="#5b9dff" stroke-dasharray="none" stroke-linecap="butt" stroke-linejoin="miter" stroke-miterlimit="4" stroke-opacity="1" stroke-width="1.5" d="m 507.93861,893.90546 3,0"/><path id="path3218" fill="none" stroke="#5b9dff" stroke-dasharray="none" stroke-linecap="butt" stroke-linejoin="miter" stroke-miterlimit="4" stroke-opacity="1" stroke-width="1.5" d="m 507.93861,899.90546 3,0"/><path id="path3220" fill="none" stroke="#5b9dff" stroke-dasharray="none" stroke-linecap="butt" stroke-linejoin="miter" stroke-miterlimit="4" stroke-opacity="1" stroke-width="1.5" d="m 507.93861,902.90546 3,0"/><path id="path3222" fill="none" stroke="#5b9dff" stroke-dasharray="none" stroke-linecap="butt" stroke-linejoin="miter" stroke-miterlimit="4" stroke-opacity="1" stroke-width="1.5" d="m 517.93861,890.90546 3,0"/><path id="path3224" fill="none" stroke="#5b9dff" stroke-dasharray="none" stroke-linecap="butt" stroke-linejoin="miter" stroke-miterlimit="4" stroke-opacity="1" stroke-width="1.5" d="m 507.93861,896.90546 13,0"/><path id="path3226" fill="none" stroke="#5b9dff" stroke-dasharray="none" stroke-linecap="butt" stroke-linejoin="miter" stroke-miterlimit="4" stroke-opacity="1" stroke-width="1.5" d="m 517.93861,893.90546 3,0"/><path id="path3230" fill="none" stroke="#5b9dff" stroke-dasharray="none" stroke-linecap="butt" stroke-linejoin="miter" stroke-miterlimit="4" stroke-opacity="1" stroke-width="1.5" d="m 517.93861,899.90546 3,0"/><path id="path3232" fill="none" stroke="#5b9dff" stroke-dasharray="none" stroke-linecap="butt" stroke-linejoin="miter" stroke-miterlimit="4" stroke-opacity="1" stroke-width="1.5" d="m 517.93861,902.90546 3,0"/><path id="path3206" fill="none" stroke="#06f" stroke-dasharray="none" stroke-linecap="butt" stroke-linejoin="miter" stroke-miterlimit="4" stroke-opacity="1" stroke-width="1.5" d="m 510.93861,890.90546 0,12 7,0 0,-12 z"/><path id="path3208" fill="none" stroke="#06f" stroke-dasharray="none" stroke-linecap="butt" stroke-linejoin="miter" stroke-miterlimit="4" stroke-opacity="1" stroke-width="1.5" d="m 507.93861,888.90546 0,16"/><path id="path3210" fill="none" stroke="#06f" stroke-dasharray="none" stroke-linecap="butt" stroke-linejoin="miter" stroke-miterlimit="4" stroke-opacity="1" stroke-width="1.5" d="m 520.93861,888.90546 0,16"/><path id="path3234" fill="none" stroke="#06f" stroke-dasharray="none" stroke-linecap="butt" stroke-linejoin="miter" stroke-miterlimit="4" stroke-opacity="1" stroke-width="1.5" d="m 515.93861,989.90562 0,5 5,0"/><path id="path3236" fill="none" stroke="#06f" stroke-dasharray="none" stroke-linecap="butt" stroke-linejoin="miter" stroke-miterlimit="4" stroke-opacity="1" stroke-width="1.5" d="m 513.93861,969.40546 c -2,0 -5,0 -7,0 l 0,10.99995 11,5e-5 c 0,-2.33332 0,-4.66668 0,-7"/><path id="path3242" fill="none" stroke="#06f" stroke-dasharray="none" stroke-linecap="butt" stroke-linejoin="miter" stroke-miterlimit="4" stroke-opacity="1" stroke-width="1.5" marker-start="none" d="m 513.93861,976.40546 5,-4 3,3 0,-10 -10,0 3,3 -4,5"/><path id="path3244" fill="none" stroke="#06f" stroke-dasharray="none" stroke-linecap="butt" stroke-linejoin="round" stroke-miterlimit="4" stroke-opacity="1" stroke-width="1.5" d="m 506.93861,940.40546 15,0 0,10 -6,0 -6,4 1,-4 -4,0 z"/><path id="path4641" fill="none" stroke="#5b9dff" stroke-dasharray="none" stroke-linecap="round" stroke-linejoin="miter" stroke-miterlimit="4" stroke-opacity="1" stroke-width="1.5" d="m 509.93861,972.40546 c 2,1 4,3 5,5"/></g><g id="layer4" display="none" transform="translate(0,-6.0000106)"><path id="path4755-9" fill="#36b" fill-opacity="1" stroke="none" d="m 8.4921988,1.0623917 -4.0641234,4.064123 -3.2512987,0 0,5.6897733 3.2512987,0 4.0641234,4.064124 z m -1.6256494,4.064124 0,5.6897733 -1.6256493,-1.6256493 -2.438474,-1e-6 0,-2.438474 2.438474,1e-6 z" display="inline"/><path id="path4760-1" fill="#15a5ea" fill-opacity="1" stroke="none" d="m 9.3050235,5.1265157 c 0,-0.812824 0.8128245,-1.625649 1.6256495,-0.812824 0,0 0.812825,0.812824 0.812825,3.251298 0,2.4384743 -0.812825,3.2512993 -0.812825,3.2512993 -0.812825,0.812825 -1.6256495,0 -1.6256495,-0.812825 0,0 0.8128245,-0.8128243 0.8128245,-2.4384743 0,-1.625649 -0.8128245,-2.438474 -0.8128245,-2.438474 z" display="inline"/><path id="path4762-8" fill="#15a5ea" fill-opacity="1" stroke="none" d="m 11.743498,3.5008667 c 0,-0.812825 0.812824,-1.625649 1.625649,-0.812825 0,0 1.625649,1.62565 1.625649,4.876948 0,3.2512993 -1.625649,4.8769483 -1.625649,4.8769483 -0.812825,0.812825 -1.625649,0 -1.625649,-0.812824 0,0 1.625649,-1.62565 1.625649,-4.0641243 0,-2.438474 -1.625649,-4.064123 -1.625649,-4.064123 z" display="inline"/><path id="path4772" fill="#36b" fill-opacity="1" stroke="none" d="m 2.8024261,23.008658 0,0.812825 10.5667209,0 0,-0.812825 z" display="inline"/><path id="path4774" fill="#36b" fill-opacity="1" stroke="none" d="m 2.8024261,33.575379 10.5667209,0 0,-0.812825 -10.5667209,0 z" display="inline"/><path id="path4782" fill="#36b" fill-opacity="1" stroke="none" d="m 2.8024261,25.447132 0,0.812824 2.438474,0 0,-0.812824 z m 8.1282469,0 0,0.812824 2.438474,0 0,-0.812824 z" display="inline"/><path id="path4778" fill="#36b" fill-opacity="1" stroke="none" d="m 2.8024261,30.32408 0,0.812824 2.438474,0 0,-0.812824 z m 8.1282469,0 0,0.812824 2.438474,0 0,-0.812824 z" display="inline"/><path id="path4780" fill="#36b" fill-opacity="1" stroke="none" d="m 2.8024261,28.698431 10.5667209,0 0,-0.812825 -10.5667209,0 z" display="inline"/><path id="path4793" fill="#15a5ea" fill-opacity="1" stroke="none" d="m 5.2409001,27.479194 0,1.625649 5.6897729,0 0,-1.625649 z" display="inline"/><path id="path4768" fill="#36b" fill-opacity="1" stroke="none" d="m 4.4280754,23.008658 0,10.56672 7.3154226,0 0,-10.56672 z m 1.6256494,1.625649 4.0641232,0 0,7.315422 -4.0641232,0 z" display="inline"/><path id="path4764" fill="#36b" fill-opacity="1" stroke="none" d="m 1.9896014,21.383009 1.6256493,0 0,13.818019 -1.6256493,0 z" display="inline"/><path id="path4766" fill="#36b" fill-opacity="1" stroke="none" d="m 12.556322,21.383009 1.62565,0 0,13.818019 -1.62565,0 z" display="inline"/><path id="path4800-4" fill="#15a5ea" fill-opacity="1" stroke="none" d="m 1.9896014,44.954923 6.096185,5.689773 6.0961856,-5.689773 -0.812825,-0.812825 -1.625649,0.813196 -3.6577116,3.251298 -3.657711,-3.251298 -1.6256493,-0.813196 z" display="inline"/><path id="path4795-8" fill="#36b" fill-opacity="1" stroke="none" d="m 1.1767767,43.329273 0,11.379545 13.8180193,0 0,-11.379545 z m 1.6256494,1.625649 10.5667209,0 0,8.128247 -10.5667209,0 z" display="inline"/><path id="path4802-8" fill="#36b" fill-opacity="1" stroke="none" d="m 1.9896014,62.024243 -0.8128247,0.812824 0,8.128247 0.8128247,0.812825 2.438474,0 -0.8128247,3.251297 5.6897728,-3.251297 4.8769485,0 0.812824,-0.812825 0,-8.128247 -0.812824,-0.812824 z m 0.8128247,1.625649 10.5667209,0 0,6.502598 -4.0641235,0 -3.5815088,2.133664 0.9144278,-2.133664 -3.8355164,0 z" display="inline"/><path id="path4807-5" fill="#36b" fill-opacity="1" stroke="none" d="m 4.4280754,82.344856 10.5667206,0 0,10.56672 -3.251298,-3.25129 -3.2512992,2.43847 -0.8128247,-0.81282 4.0641239,-3.2513 1.625649,1.62565 0,-5.68978 -5.6897729,0 1.6256494,1.62565 -3.2512987,4.06413 -0.8128247,-0.81283 2.438474,-3.2513 z" display="inline"/><path id="path4809-7" fill="#36b" fill-opacity="1" stroke="none" d="m 8.4921988,85.596156 -7.3154221,0 0,10.56672 10.5667213,0 0,-7.31542 -1.62565,0.81283 0,4.87694 -7.3154219,0 0,-7.31542 4.876948,0 z" display="inline"/><path id="path4818-67" fill="#15a5ea" fill-opacity="1" stroke="none" d="m 8.4921988,103.47831 0,4.87694 4.8769482,0 0,-1.62565 -3.251299,0 0,-3.25129 z" display="inline"/><path id="path4813-2" fill="#36b" fill-opacity="1" stroke="none" d="m 1.9896014,102.66548 0,13.81802 12.1923706,0 0,-10.13799 -3.657711,-3.68003 z m 1.6256493,1.62565 6.5025973,0 2.438474,2.43847 0,8.12825 -8.9410713,0 z" display="inline"/><path id="path4822-8" fill="#15a5ea" fill-opacity="1" stroke="none" d="m 3.6152507,88.847456 c 0,-0.81282 0.8128247,-0.81282 0.8128247,-0.81282 2.438474,0.81282 4.0641234,2.43847 4.8769481,4.87694 0,0 0,0.81283 -0.8128247,0.81283 -1.6256494,-2.43847 -2.438474,-3.2513 -4.8769481,-4.87695 z" display="inline"/></g><g id="layer3" display="none" transform="translate(-10,-26.000007)"><path id="path4755" fill="#36b" fill-opacity="1" stroke="none" d="m 19,20.999995 -4,4 -3,0 0,6 3,0 4,4 z m -1,2.5 0,9 -2.6,-2.5 -2.4,0 0,-4 2.5,0 z"/><path id="path4760" fill="#15a5ea" fill-opacity="1" stroke="none" d="m 19.75,24.999995 c 0,-1 0.75,-1 0.75,-1 0,0 1.5,1.029412 1.5,3.5 0,2.470588 -1.5,3.5 -1.5,3.5 0,0 -0.75,0 -0.75,-1 0,0 1,-0.852941 1,-2.5 0,-1.647059 -1,-2.5 -1,-2.5 z"/><path id="path4762" fill="#15a5ea" fill-opacity="1" stroke="none" d="m 22.25,23.999995 c 0,-1 0.75,-1 0.75,-1 0,0 2,1.205882 2,4.5 0,3.294118 -2,4.5 -2,4.5 0,0 -0.75,0 -0.75,-1 0,0 1.5,-1.029412 1.5,-3.5 0,-2.470588 -1.5,-3.5 -1.5,-3.5 z"/><path id="path4802" fill="#36b" fill-opacity="1" stroke="none" d="m 31.4375,79.875 -1,1 0,10 1,1 3,0 -1,4 7,-4 6,0 1,-1 0,-10 -1,-1 z m 1,2 13,0 0,8 -5,0 -4.40625,2.625 1.125,-2.625 -4.71875,0 z"/><path id="path4807" fill="#36b" fill-opacity="1" stroke="none" d="m 35.125,98.8125 13,0 0,13 -4,-4 -4,3 -1,-1 5,-4 2,2 0,-7 -7,0 2,2 -4,5 -1,-1 3,-4 z"/><path id="path4809" fill="#36b" fill-opacity="1" stroke="none" d="m 40.125,102.8125 -9,0 0,13 13,0 0,-9 -2,1 0,6 -9,0 0,-9 6,0 z"/><path id="path4822" fill="#15a5ea" fill-opacity="1" stroke="none" d="m 34.125,106.8125 c 0,-1 1,-1 1,-1 3,1 5,3 6,6 0,0 0,1 -1,1 -2,-3 -3,-4 -6,-6 z"/><path id="rect4841" fill="#15a5ea" fill-opacity="1" fill-rule="evenodd" stroke="none" d="m 12,50.499995 0,1 3,0 0,-1 -3,0 z m 9,0 0,1 3,0 0,-1 -3,0 z"/><path id="rect4843" fill="#15a5ea" fill-opacity="1" fill-rule="evenodd" stroke="none" d="m 12,44.499995 0,1 3,0 0,-1 -3,0 z m 9,0 0,1 3,0 0,-1 -3,0 z"/><path id="rect4843-1" fill="#15a5ea" fill-opacity="1" fill-rule="evenodd" stroke="none" d="m 12,52.999995 0,1 3,0 0,-1 z m 9,0 0,1 3,0 0,-1 z" display="inline"/><path id="rect4843-17" fill="#15a5ea" fill-opacity="1" fill-rule="evenodd" stroke="none" d="m 12,41.999995 0,1 3,0 0,-1 z m 9,0 0,1 3,0 0,-1 z" display="inline"/><path id="rect4841-9" fill="#15a5ea" fill-opacity="1" fill-rule="evenodd" stroke="none" d="m 12,47.499995 0,1 3,0 0,-1 z m 9,0 0,1 3,0 0,-1 z" display="inline"/><rect id="rect4835" width="7" height="2" x="4" y="27" fill="#15a5ea" fill-opacity="1" fill-rule="evenodd" stroke="none" transform="translate(10,19.999995)"/><path id="path4826" fill="#36b" fill-opacity="1" stroke="none" d="m 2,21 1,0 0,14 -1,0 z" transform="translate(10,19.999995)"/><path id="path4828" fill="#36b" fill-opacity="1" stroke="none" d="m 13,21 1,0 0,14 -1,0 z" transform="translate(10,19.999995)"/><path id="path4830" fill="#36b" fill-opacity="1" stroke="none" d="m 4,22 0,12 8,0 0,-12 z m 1,1 6,0 0,10 -6,0 z" transform="translate(10,19.999995)"/><rect id="rect4837" width="8" height="1" x="4" y="22" fill="#36b" fill-opacity="1" fill-rule="evenodd" stroke="none" transform="translate(10,19.999995)"/><rect id="rect4839" width="8" height="1" x="4" y="33" fill="#36b" fill-opacity="1" fill-rule="evenodd" stroke="none" transform="translate(10,19.999995)"/><path id="path4910" fill="#15a5ea" fill-opacity="1" stroke="none" d="m 12,64.999995 6,5 6,-5 0.53033,-1.45299 -1.28033,0.45299 -5.25,4.5 -5.25,-4.5 -1.236136,-0.53033 z"/><path id="path4905" fill="#36b" fill-opacity="1" stroke="none" d="m 11,62.999995 0,10 14,0 0,-10 z m 1,1 12,0 0,8 -12,0 z"/><path id="path4818-6" fill="#15a5ea" fill-opacity="1" stroke="none" d="m 19,121 0,5 5,0 -1,-1 -3,0 0,-3 z" display="inline"/><path id="path4813-3" fill="#36b" fill-opacity="1" stroke="none" d="m 12,121 0,14 12,0 0,-10 -4,-4 z m 1,1 6.5,0 3.5,3.5 0,8.5 -10,0 z" display="inline"/></g><g id="layer5" opacity=".99" transform="translate(0,-6.0000106)"><path id="path4755-9-5" fill="#36b" fill-opacity="1" stroke="none" d="m 7,23.000004 -3,3 -3,0 0,4 3,0 3,3 z m -1,2.500001 0,5 -1.5,-1.500001 -2.5,0 0,-2 2.5,0 z" display="inline"/><path id="path4760-1-7" fill="#15a5ea" fill-opacity="1" stroke="none" d="m 7.4319858,26.075368 c 0,-0.621323 0.6213237,-1.242647 1.2426477,-0.621323 0,0 0.6213228,0.621323 0.6213228,2.485294 0,1.863971 -0.6213228,2.485294 -0.6213228,2.485294 -0.621324,0.621324 -1.2426477,0 -1.2426477,-0.621323 0,0 0.6213237,-0.621324 0.6213237,-1.863971 0,-1.242648 -0.6213237,-1.863971 -0.6213237,-1.863971 z" display="inline"/><path id="path4762-8-3" fill="#15a5ea" fill-opacity="1" stroke="none" d="m 9.2959563,24.832721 c 0,-0.621324 0.6213228,-1.242647 1.2426477,-0.621324 0,0 1.242646,1.242648 1.242646,3.727942 0,2.485294 -1.242646,3.727941 -1.242646,3.727941 -0.6213249,0.621324 -1.2426477,0 -1.2426477,-0.621323 0,0 1.2426477,-1.242647 1.2426477,-3.106618 0,-1.863971 -1.2426477,-3.106618 -1.2426477,-3.106618 z" display="inline"/><path id="path4772-4" fill="#15a5ea" fill-opacity=".992" stroke="none" d="m 2.4916056,40.000004 0,0.621323 8.0979164,0 0,-0.621323 z" display="inline"/><path id="path4774-6" fill="#15a5ea" fill-opacity=".992" stroke="none" d="m 2.4916056,48.000004 8.0979164,0 0,-0.621324 -8.0979164,0 z" display="inline"/><path id="path4782-3" fill="#15a5ea" fill-opacity=".992" stroke="none" d="m 2.4916056,41.919118 0,0.621323 1.8687499,0 0,-0.621323 z m 6.2291665,0 0,0.621323 1.8687499,0 0,-0.621323 z" display="inline"/><path id="path4778-9" fill="#15a5ea" fill-opacity=".992" stroke="none" d="m 2.4916056,45.589344 0,0.621322 1.8687499,0 0,-0.621322 z m 6.2291665,0 0,0.621322 1.8687499,0 0,-0.621322 z" display="inline"/><path id="path4780-0" fill="#15a5ea" fill-opacity=".992" stroke="none" d="m 2.4916056,44.404412 8.0979164,0 0,-0.621323 -8.0979164,0 z" display="inline"/><path id="path4793-0" fill="#15a5ea" fill-opacity="1" stroke="none" d="m 4.3603555,43.472427 0,1.242647 4.3604166,0 0,-1.242647 z" display="inline"/><path id="path4768-5" fill="#36b" fill-opacity="1" stroke="none" d="m 4,40.000004 0,8 5,0 0,-8 z m 1,1 3,0 0,6 -3,0 z" display="inline"/><path id="path4764-1" fill="#36b" fill-opacity="1" stroke="none" d="m 2,39.000004 1,0 0,10 -1,0 z" display="inline"/><path id="path4766-6" fill="#36b" fill-opacity="1" stroke="none" d="m 10,39.000004 1,0 0,10 -1,0 z" display="inline"/><path id="path4800-4-9" fill="#15a5ea" fill-opacity="1" stroke="none" d="M 1.8400738,58.055766 6.5000005,62.405031 11.159927,58.055766 10.538604,57.434442 9.2959563,58.056049 6.5000005,60.541343 3.7040445,58.056049 2.4613977,57.434442 z" display="inline"/><path id="path4795-8-2" fill="#36b" fill-opacity="1" stroke="none" d="m 1,57.000008 0,8 11,0 0,-8 z m 1,1 9,0 0,6 -9,0 z" display="inline"/><path id="path4802-8-9" fill="#36b" fill-opacity="1" stroke="none" d="M 1.6213238,72.000004 1,72.621328 l 0,5.757352 0.6213238,0.621324 1.6894529,0 L 2.6894528,81.727943 7,79.000004 l 4.378677,0 L 12,78.37868 12,72.621328 11.378677,72.000004 z m 0.3786762,1 9,0 0,5 -4,0 L 4.0978858,79.896603 5,78.000004 l -3,0 z" display="inline"/><path id="path4807-5-6" fill="#36b" fill-opacity="1" stroke="none" d="m 5,88.000004 7,0 0,7 -2,-2 -3,2 0,-1 3,-2.249999 1,1 0,-3.750001 -3.75,0 1,1 -2.25,3 -1,0 2,-3 z" display="inline"/><path id="path4809-7-3" fill="#36b" fill-opacity="1" stroke="none" d="m 7,90.000004 -5,0 0,8 8,0 0,-5 -1,0 0,4 -6,0 0,-6 4,0 z" display="inline"/><path id="path4818-67-7" fill="#15a5ea" fill-opacity="1" stroke="none" d="m 7.5,105.00001 0,3 2.5,0 1,-1 -2.5,0 0,-3 z" display="inline"/><path id="path4813-2-2" fill="#36b" fill-opacity="1" stroke="none" d="m 3,104 0,10 8,1e-5 0,-7 -2.5,-3 z m 1,1 4,1e-5 2,2.50001 0,5.49999 -6,0 z" display="inline"/><path id="path4822-8-2" fill="#15a5ea" fill-opacity="1" stroke="none" d="m 4.0827206,92.533089 c 0,-0.621319 0.6213239,-0.621319 0.6213239,-0.621319 1.8639706,0.621319 3.1066175,1.863968 3.7279413,3.727935 0,0 0,0.621328 -0.6213238,0.621328 C 6.5680151,94.397065 5.9466913,93.775738 4.0827206,92.533089 z" display="inline"/><path id="path3209" fill="#3465ba" fill-opacity="1" stroke="none" d="m 1,8.500006 0,7.5001 1,-0.9872 0,-6.0129 2,0 2,1 4,-2e-4 0,2.0002 1,0 0,-2.5 -0.5,-0.5002 -4.5,2e-4 -2,-1 -2.5,0 z" display="inline"/><path id="path3215" fill="#16a4e8" fill-opacity="1" stroke="none" d="m 6,11.000106 -1,-10e-5 -2.5,0 -0.5,0.5 -1,4.5001 10,-10e-5 0,-4.4998 -0.5,-0.5 z m 0,1 4,-10e-5 0,3 -7.75,-1e-4 0.75,-3.0001 2,0 z" display="inline"/><path id="path3247" fill="#3465ba" fill-opacity="1" stroke="none" d="m 2,17.000006 0,1 8,0 0,-1 z" display="inline"/><path id="path3249" fill="#3465ba" fill-opacity="1" stroke="none" d="m 5,15.500006 0,2 2,0 0,-2 c 0,-0.5 -2,-0.5 -2,0 z" display="inline"/></g></svg>