<svg xmlns="http://www.w3.org/2000/svg" xmlns:svg="http://www.w3.org/2000/svg" id="svg4055" width="22" height="22" version="1.1"><defs id="defs4057"><filter id="filter5056" color-interpolation-filters="sRGB"><feGaussianBlur id="feGaussianBlur5058" in="SourceGraphic" result="result0" stdDeviation="6"/><feDiffuseLighting id="feDiffuseLighting5060" diffuseConstant="1" result="result5" surfaceScale="10"><feDistantLight id="feDistantLight5062" azimuth="235" elevation="25"/></feDiffuseLighting><feComposite id="feComposite5064" in="result5" in2="SourceGraphic" k1="1" k2="0" k3=".6" operator="arithmetic" result="result4"/></filter><filter id="filter4225"><feGaussianBlur id="feGaussianBlur4227" stdDeviation=".304"/></filter><filter id="filter4229"><feGaussianBlur id="feGaussianBlur4231" stdDeviation=".406"/></filter></defs><metadata id="metadata4060"/><g id="layer1" transform="translate(-523.28571,-512.07648)"><text id="text5195" x="567.415" y="493.062" fill="#444" fill-opacity="1" stroke="none" font-family="DejaVu Serif" font-size="17.609" font-stretch="normal" font-style="normal" font-variant="normal" font-weight="normal" letter-spacing="0" transform="scale(0.93034878,1.0748657)" word-spacing="0" xml:space="preserve" style="line-height:125%;-inkscape-font-specification:DejaVu Serif"><tspan style="-inkscape-font-specification:DejaVu Serif Italic" id="tspan5197" x="567.415" y="493.062" fill="#444" fill-opacity="1" font-style="italic" font-weight="normal">K</tspan></text><path id="text4207" fill="#fff" fill-opacity="1" stroke="none" d="m 529.97321,516.17023 -0.1875,1 0.59375,0 0.0937,-0.5 4.0625,0 0.0937,-0.5 -4.65625,0 z m 6.96875,0 -0.15625,1 0.5625,0 0.0937,-0.5 3.40625,0 0.0625,-0.5 -3.96875,0 z m -5.71875,1.5 -1.90625,11.3125 -1.5,0 -0.15625,1 0.5625,0 0.0937,-0.5 1.5,0 2,-11.8125 -0.59375,0 z m 6.3125,0 -4.78125,4.125 -0.1875,1.09375 6.03125,-5.21875 -1.0625,0 z m -5.15625,6.25 -0.0312,0.1875 4.09375,5.875 0.15625,0 -4.21875,-6.0625 z m -0.84375,5.0625 -0.0937,0.5 0.96875,0 0.0625,-0.5 -0.9375,0 z m 6.65625,0 0.34375,0.5 0.75,0 0.0937,-0.5 -1.1875,0 z" filter="url(#filter4225)" font-family="DejaVu Serif" font-size="17.609" font-stretch="normal" font-style="normal" font-variant="normal" font-weight="normal" letter-spacing="0" opacity=".8" word-spacing="0" style="line-height:125%;-inkscape-font-specification:DejaVu Serif"/></g></svg>