<svg xmlns="http://www.w3.org/2000/svg" id="svg4055" width="22" height="22" version="1.1"><defs id="defs4057"><filter id="filter4108"><feGaussianBlur id="feGaussianBlur4110" stdDeviation=".293"/></filter></defs><metadata id="metadata4060"/><g id="layer1" transform="translate(-523.29 -512.08)"><text id="text5195" x="569.045" y="493.062" fill="#444" font-family="DejaVu Serif" font-size="17.609" letter-spacing="0" line-height="125%" transform="scale(.93035 1.0749)" word-spacing="0" xml:space="preserve"><tspan id="tspan5197" x="569.045" y="493.062" fill="#444" font-style="italic">A</tspan></text><path id="text4090" fill="#fff" d="m535.79 516.17-6.4062 12.812h-1.0625l-0.15625 1h0.5625l0.0937-0.5h1.0625l6.4062-12.812h0.9375l-0.0937-0.5h-1.3438zm0.375 2.75-0.3125 0.625 0.90625 5.4375h-3.625l-0.25 0.5h4.375l-1.0938-6.5625zm0.8125 7.5312 0.40625 2.5312h-1.3125l-0.15625 1h0.5625l0.0937-0.5h1.3125l-0.46875-3.0312h-0.4375zm-5.8438 2.5312-0.25 0.5h0.71875l0.0937-0.5h-0.5625zm8.5312 0 0.0937 0.5h0.59375l0.0625-0.5h-0.75z" filter="url(#filter4108)" opacity=".8"/></g></svg>