<svg xmlns="http://www.w3.org/2000/svg" id="svg11148" width="22" height="22" version="1.1"><defs id="defs11150"><filter id="filter11711"><feGaussianBlur id="feGaussianBlur11713" stdDeviation=".4"/></filter></defs><metadata id="metadata11153"/><g id="layer1" transform="translate(-823.29 -707.08)"><text id="text11171" x="835.857" y="718.304" fill="#969795" stroke="#2e3436" stroke-linejoin="round" stroke-width=".708" font-family="DejaVu Serif" font-size="10.125" letter-spacing="0" line-height="125%" word-spacing="0" xml:space="preserve"><tspan id="tspan11173" x="835.857" y="718.304" fill="#969795" stroke="#2e3436" stroke-linejoin="round" stroke-width=".708" font-weight="bold">+</tspan></text><text id="text11693" x="825.394" y="725.079" fill="#212222" font-family="DejaVu Serif" font-size="18.172" letter-spacing="0" line-height="125%" word-spacing="0" xml:space="preserve"><tspan id="tspan11695" x="825.394" y="725.079" fill="#212222">A</tspan></text><path id="text11683" fill="#fff" d="m830.52 710.76-5.0625 13.219h-1.25v1.0312h0.5v-0.5h1.25l5.0625-13.25h1.3125l-0.1875-0.5h-1.625zm0.8125 2.8125-0.15625 0.40625 2.2812 5.875h-4.5312l-0.1875 0.5h5.2188l-2.625-6.7812zm2.6875 7.7812 1 2.625h-1.5625v1.0312h0.5v-0.5h1.5625l-1.1875-3.1562h-0.3125zm-6.6875 2.625-0.1875 0.53125h1.0625v-0.53125h-0.875zm10.188 0 0.21875 0.53125h0.875v-0.53125h-1.0938z" filter="url(#filter11711)" opacity=".692" transform="matrix(.92895 0 0 .92895 59.652 51.581)"/></g></svg>