<svg xmlns="http://www.w3.org/2000/svg" xmlns:svg="http://www.w3.org/2000/svg" id="svg11148" width="22" height="22" version="1.1"><defs id="defs11150"><filter id="filter11711"><feGaussianBlur id="feGaussianBlur11713" stdDeviation=".4"/></filter><filter id="filter11735"><feGaussianBlur id="feGaussianBlur11737" stdDeviation=".222"/></filter></defs><metadata id="metadata11153"/><g id="layer1" transform="translate(-823.28571,-707.07648)"><text id="text11171" x="676.906" y="897.271" fill="#969795" fill-opacity="1" stroke="#2e3436" stroke-dasharray="none" stroke-linejoin="miter" stroke-miterlimit="4" stroke-opacity="1" stroke-width=".77" font-family="DejaVu Serif" font-size="5.077" font-stretch="normal" font-style="normal" font-variant="normal" font-weight="normal" letter-spacing="0" transform="scale(1.2392818,0.80691898)" word-spacing="0" xml:space="preserve" style="line-height:125%;-inkscape-font-specification:DejaVu Serif"><tspan id="tspan11173" x="676.906" y="897.271" fill="#969795" fill-opacity="1" stroke="#2e3436" stroke-dasharray="none" stroke-linejoin="miter" stroke-miterlimit="4" stroke-opacity="1" stroke-width=".77" font-weight="bold" style="-inkscape-font-specification:DejaVu Serif Bold">▼</tspan></text><text font-stretch="normal" style="line-height:125%;-inkscape-font-specification:DejaVu Serif" id="text11693" x="825.394" y="725.079" fill="#212222" fill-opacity="1" stroke="none" font-family="DejaVu Serif" font-size="18.172" font-style="normal" font-variant="normal" font-weight="normal" letter-spacing="0" word-spacing="0" xml:space="preserve"><tspan id="tspan11695" x="825.394" y="725.079" fill="#212222" fill-opacity="1" font-weight="normal" style="-inkscape-font-specification:DejaVu Serif">A</tspan></text><path id="text11683" fill="#fff" fill-opacity="1" stroke="none" d="m 830.51875,710.76366 -5.0625,13.21875 -1.25,0 0,1.03125 0.5,0 0,-0.5 1.25,0 5.0625,-13.25 1.3125,0 -0.1875,-0.5 -1.625,0 z m 0.8125,2.8125 -0.15625,0.40625 2.28125,5.875 -4.53125,0 -0.1875,0.5 5.21875,0 -2.625,-6.78125 z m 2.6875,7.78125 1,2.625 -1.5625,0 0,1.03125 0.5,0 0,-0.5 1.5625,0 -1.1875,-3.15625 -0.3125,0 z m -6.6875,2.625 -0.1875,0.53125 1.0625,0 0,-0.53125 -0.875,0 z m 10.1875,0 0.21875,0.53125 0.875,0 0,-0.53125 -1.09375,0 z" filter="url(#filter11711)" font-family="DejaVu Serif" font-size="19.561" font-stretch="normal" font-style="normal" font-variant="normal" font-weight="normal" letter-spacing="0" opacity=".692" transform="matrix(0.92894952,0,0,0.92894952,59.652113,51.58086)" word-spacing="0" style="line-height:125%;-inkscape-font-specification:DejaVu Serif"/></g></svg>