<svg xmlns="http://www.w3.org/2000/svg" xmlns:svg="http://www.w3.org/2000/svg" id="svg4055" width="22" height="22" version="1.1"><defs id="defs4057"><filter id="filter5056" color-interpolation-filters="sRGB"><feGaussianBlur id="feGaussianBlur5058" in="SourceGraphic" result="result0" stdDeviation="6"/><feDiffuseLighting id="feDiffuseLighting5060" diffuseConstant="1" result="result5" surfaceScale="10"><feDistantLight id="feDistantLight5062" azimuth="235" elevation="25"/></feDiffuseLighting><feComposite id="feComposite5064" in="result5" in2="SourceGraphic" k1="1" k2="0" k3=".6" operator="arithmetic" result="result4"/></filter><filter id="filter4108"><feGaussianBlur id="feGaussianBlur4110" stdDeviation=".293"/></filter><filter id="filter4112"><feGaussianBlur id="feGaussianBlur4114" stdDeviation=".391"/></filter></defs><metadata id="metadata4060"/><g id="layer1" transform="translate(-523.28571,-512.07648)"><text id="text5195" x="569.045" y="493.062" fill="#444" fill-opacity="1" stroke="none" font-family="DejaVu Serif" font-size="17.609" font-stretch="normal" font-style="normal" font-variant="normal" font-weight="normal" letter-spacing="0" transform="scale(0.93034878,1.0748657)" word-spacing="0" xml:space="preserve" style="line-height:125%;-inkscape-font-specification:DejaVu Serif"><tspan style="-inkscape-font-specification:DejaVu Serif Italic" id="tspan5197" x="569.045" y="493.062" fill="#444" fill-opacity="1" font-style="italic" font-weight="normal">A</tspan></text><path id="text4090" fill="#fff" fill-opacity="1" stroke="none" d="m 535.78571,516.17023 -6.40625,12.8125 -1.0625,0 -0.15625,1 0.5625,0 0.0937,-0.5 1.0625,0 6.40625,-12.8125 0.9375,0 -0.0937,-0.5 -1.34375,0 z m 0.375,2.75 -0.3125,0.625 0.90625,5.4375 -3.625,0 -0.25,0.5 4.375,0 -1.09375,-6.5625 z m 0.8125,7.53125 0.40625,2.53125 -1.3125,0 -0.15625,1 0.5625,0 0.0937,-0.5 1.3125,0 -0.46875,-3.03125 -0.4375,0 z m -5.84375,2.53125 -0.25,0.5 0.71875,0 0.0937,-0.5 -0.5625,0 z m 8.53125,0 0.0937,0.5 0.59375,0 0.0625,-0.5 -0.75,0 z" filter="url(#filter4108)" font-family="DejaVu Serif" font-size="17.609" font-stretch="normal" font-style="normal" font-variant="normal" font-weight="normal" letter-spacing="0" opacity=".8" word-spacing="0" style="line-height:125%;-inkscape-font-specification:DejaVu Serif"/></g></svg>