<svg xmlns="http://www.w3.org/2000/svg" id="svg4055" width="22" height="22" version="1.1"><defs id="defs4057"><filter id="filter3809"><feGaussianBlur id="feGaussianBlur3811" stdDeviation=".302"/></filter></defs><metadata id="metadata4060"/><g id="layer1" transform="translate(-523.29 -512.08)"><text id="text5195" x="566.91" y="492.986" fill="#444" font-family="DejaVu Serif" font-size="17.609" letter-spacing="0" line-height="125%" transform="scale(.93035 1.0749)" word-spacing="0" xml:space="preserve"><tspan id="tspan5197" x="566.91" y="492.986" fill="#444" font-weight="bold">A</tspan></text><path id="text3023" fill="#fff" d="m532.75 516.11-4.4688 12.656h-1v1.125h0.5v-0.625h1l4.4688-12.656h1.625l-0.1875-0.5h-1.9375zm0.4375 3.9688-0.15625 0.46875 1.4688 4.2812h-3l-0.1875 0.5h3.6875l-1.8125-5.25zm1.9062 6.375 0.8125 2.3125h-1.1875v1.125h0.5v-0.625h1.1875l-1-2.8125h-0.3125zm-5 2.3125-0.1875 0.5h0.9375v-0.5h-0.75zm9.4062 0 0.1875 0.5h0.625v-0.5h-0.8125z" filter="url(#filter3809)" opacity=".8"/></g></svg>