<svg xmlns="http://www.w3.org/2000/svg" xmlns:svg="http://www.w3.org/2000/svg" id="svg7132" width="22" height="22" version="1.1"><metadata id="metadata7137"/><g id="layer1" transform="translate(-714.71429,-701.36218)"><g id="g7675" transform="translate(26.036511,-0.0978784)"><path id="path7155" fill="#52394e" fill-opacity="1" stroke="#52394e" stroke-dasharray="none" stroke-linecap="butt" stroke-linejoin="miter" stroke-miterlimit="4" stroke-opacity="1" stroke-width="2" d="m 691.68161,706.63153 -1.45209,12.6269 c 0,0 3.54369,-1.49312 6.50286,-0.88388 2.14658,0.44194 3.34613,1.38896 3.34613,1.38896 0,0 2.77792,-2.39911 6.12405,-1.6415 3.34613,0.75762 2.90418,0.69448 2.90418,0.69448 l -1.19955,-12.2481"/><path id="path7151" fill="#fff" fill-opacity="1" stroke="#b1b2af" stroke-linecap="butt" stroke-linejoin="miter" stroke-opacity="1" stroke-width="1" d="m 692.06042,707.26287 -0.82075,10.60661 c 0,0 2.39912,-1.76777 4.9245,-1.19956 2.84205,0.63945 3.47239,1.76776 3.47239,1.76776 l 0,-12.6269 c 0,0 -2.58851,-1.89404 -4.86135,-0.82075 -2.27285,1.07329 -2.71479,2.27284 -2.71479,2.27284 z"/><path id="path7153" fill="#fff" fill-opacity="1" stroke="#b1b2af" stroke-linecap="butt" stroke-linejoin="miter" stroke-opacity="1" stroke-width="1" d="m 699.63656,706.06332 c 0,0 2.27285,-2.14658 4.98763,-1.13642 2.71479,1.01015 2.65165,2.0203 2.65165,2.0203 l 1.01016,10.79601 c 0,0 -1.95717,-1.26269 -4.29315,-0.69448 -2.33598,0.56821 -3.53553,1.76776 -3.53553,1.76776 z"/><path id="path7157" fill="none" stroke="#c04848" stroke-dasharray="none" stroke-linecap="butt" stroke-linejoin="miter" stroke-miterlimit="4" stroke-opacity="1" stroke-width="1.6" d="m 699.8891,706.56839 c 0,0 -0.31573,1.12962 2.28105,5.17626 2.65428,4.13625 2.07524,6.56677 2.07524,6.56677"/></g></g></svg>