<svg xmlns="http://www.w3.org/2000/svg" xmlns:xlink="http://www.w3.org/1999/xlink" id="svg9197" width="22" height="22" version="1.1"><defs id="defs9199"><radialGradient id="radialGradient9772" cx="8.17" cy="6.458" r="5.458" gradientTransform="matrix(-1.0337 .97885 -.83095 -1.1642 881.62 640.19)" gradientUnits="userSpaceOnUse"><stop id="stop9762" offset="0" stop-color="#fff"/><stop id="stop9764" offset="1" stop-color="#fff" stop-opacity="0"/></radialGradient><linearGradient id="linearGradient9784" x1="7.788" x2="17.905" y1="12.735" y2="8.18" gradientTransform="matrix(1.1632 0 0 1.3512 858.27 629.03)" gradientUnits="userSpaceOnUse"><stop id="stop9780" offset="0" stop-color="#f0a829"/><stop id="stop9782" offset="1" stop-color="#f0ad3e"/></linearGradient><filter id="filter9873"><feGaussianBlur id="feGaussianBlur9875" stdDeviation=".123"/></filter></defs><metadata id="metadata9202"/><g id="layer1" transform="translate(-860.43 -632.79)"><g id="g9740" transform="matrix(.96584 -.25915 .25915 .96584 -155.71 250.69)"><rect id="rect9216" width="15.655" height="10.079" x="883.86" y="638.24" fill="#fefefe" stroke="#88897f" stroke-width=".925"/><rect id="rect9726" width="12.768" height="7.098" x="885.29" y="639.75" fill="#88acd3"/></g><g id="g9732" transform="matrix(.94981 .31284 -.31284 .94981 225.24 -243.05)"><rect id="rect9734" width="15.655" height="10.079" x="883.86" y="638.24" fill="#fefefe" stroke="#88897f" stroke-width=".925"/><rect id="rect9736" width="12.768" height="7.098" x="885.29" y="639.75" fill="#6bbe21"/></g><g><rect id="rect9746" width="15.655" height="10.079" x="865.34" y="638.32" fill="#fefefe" stroke="#88897f" stroke-width=".925"/><rect id="rect9774" width="12.698" height="7.094" x="866.73" y="639.78" fill="url(#linearGradient9784)"/><path id="path9756" fill="#fff" d="m13.872 11.5a1.5298 1.5298 0 0 1 -1.5298 1.5298 1.5298 1.5298 0 0 1 -1.5298 -1.5298 1.5298 1.5298 0 0 1 1.5298 -1.5298 1.5298 1.5298 0 0 1 1.5298 1.5298z" transform="translate(860.6 632.93)"/><rect id="rect9758" width="12.698" height="7.034" x="866.76" y="639.81" fill="url(#radialGradient9772)" opacity=".739"/></g><path id="path9752" d="m866.75 646.07 1.9194-0.11086 0.32595-0.96072 1.1951-1.1455 0.97784 1.1085 1.7022 0.25865 2.6076-0.25865 0.50702-0.99768 1.4124 0.36951 1.0503 1.2933 1.0503 0.44342v0.84987h-12.712z"/><path id="rect9748" d="m6.3438 7.0312v7.125h12.75v-7.125h-12.75zm0.71875 0.6875h11.125v5.7188h-11.125v-5.7188z" filter="url(#filter9873)" opacity=".459" transform="matrix(1.0187 0 0 1.0634 860.13 632.15)"/></g></svg>