<svg xmlns="http://www.w3.org/2000/svg" xmlns:xlink="http://www.w3.org/1999/xlink" id="svg8549" width="22" height="22" version="1.1"><defs id="defs8551"><radialGradient id="radialGradient9185" cx="31.994" cy="9.02" r="6.866" gradientTransform="matrix(1.5459 -.89509 .42455 .72968 727.79 718.64)" gradientUnits="userSpaceOnUse"><stop id="stop9102" offset="0" stop-color="#f4f5f4"/><stop id="stop9104" offset="1" stop-color="#f4f5f4" stop-opacity="0"/></radialGradient><radialGradient id="radialGradient9190" cx="30.513" cy="16.796" r="3.141" gradientTransform="matrix(1.5529 -1.1868e-7 7.6106e-8 .99585 732.27 685.88)" gradientUnits="userSpaceOnUse"><stop id="stop9126" offset="0" stop-color="#ffedbc"/><stop id="stop9128" offset="1" stop-color="#f7eca1"/></radialGradient><linearGradient id="linearGradient9194" x1="805.19" x2="805.19" y1="693.06" y2="702.22" gradientTransform="translate(-22.749 .23884)" gradientUnits="userSpaceOnUse"><stop id="stop9092" offset="0" stop-color="#766649"/><stop id="stop9094" offset="1" stop-color="#e6a540"/></linearGradient></defs><metadata id="metadata8554"/><g id="layer1" transform="translate(-771.86 -687.08)"><path id="rect8568" fill="#f4f5f4" stroke="#979995" stroke-linecap="square" stroke-linejoin="round" stroke-width=".984" d="m773.34 690.56v15.031h15.688l1.6875-1.6875 1.625-1.5938v-11.75h-19z"/><rect id="rect9088" width="14.783" height="10.804" x="775.42" y="692.72" fill="url(#linearGradient9194)" stroke="#8a8475" stroke-linecap="square" stroke-miterlimit="1.5" stroke-width=".984"/><path id="path9114" fill="#001700" d="m784.01 702.6 0.0601-2.9358-1.2603-1.9364-1.8605-1.2493 1.8005 0.62463-0.26028-1.4679-1.8253-2.1976 1.3236 0.61702 0.91039 1.0376 0.35492 1.3173 0.18635 0.79469 1.1706 1.7905 2.0412-1.9204 1.6798-2.4074-0.62239 2.5323-2.3224 2.5461v2.9745z"/><path id="path9118" fill="url(#radialGradient9190)" d="m779.67 699.11c-1.7317 0-3.125 1.3933-3.125 3.125 0 0.1736 0.0354 0.33407 0.0625 0.5h6.1562c0.0271-0.16593 0.0625-0.3264 0.0625-0.5 0-1.7317-1.4245-3.125-3.1562-3.125z"/><path id="path9112" fill="#193119" d="m775.9 703.05h13.732v-0.54833h-13.78z"/><path id="path9086" fill="#f4f5f4" stroke="#979995" stroke-miterlimit="1.5" d="m789.04 705.53 3.3259-3.3259h-3.3259z"/><path id="path9098" fill="url(#radialGradient9185)" d="m775.97 700.54s1.7955-2.8132 6.3571-4.8635c4.3496-1.9549 7.3609-2.4794 7.3609-2.4794h-13.766z" opacity=".311"/></g></svg>