<svg xmlns="http://www.w3.org/2000/svg" xmlns:svg="http://www.w3.org/2000/svg" id="svg9896" width="22" height="22" version="1.1"><defs id="defs9898"><filter id="filter10487" width="1.167" height="1.277" x="-.084" y="-.139"><feGaussianBlur id="feGaussianBlur10489" stdDeviation=".581"/></filter><filter id="filter10491" width="1.266" height="1.172" x="-.133" y="-.086"><feGaussianBlur id="feGaussianBlur10493" stdDeviation=".58"/></filter></defs><metadata id="metadata9901"/><g id="layer1" transform="translate(-364,-521.36218)"><g id="g10495" transform="translate(20.359375,-0.98355932)"><path id="path9915" fill="#373736" fill-opacity="1" stroke="#000" stroke-linecap="butt" stroke-linejoin="miter" stroke-opacity="1" stroke-width="1" d="m 353.50893,536.39789 0,5.04465 -7.1875,-7.14286 7.1875,-7.1875 0,4.24107 4.28571,0 0,-6.11607 5.17857,0 0,11.20536 z"/><path id="path10454" fill="#000" fill-opacity="1" stroke="none" d="m 361.96875,525.23718 0,10.21875 -9.46875,-0.0625 0,5.0625 1,1 0,-5.0625 9.46875,0.0625 0,-11.21875 -1,0 z m -8.46875,1.875 -1,1 0,2.25 1,0 0,-3.25 z" filter="url(#filter10491)" opacity=".6"/><path id="path10425" fill="#fff" fill-opacity="1" stroke="none" d="m 357.78125,525.23718 0,6.125 -3.28125,0 0,1 4.28125,0 0,-6.125 4.1875,0 0,-1 -5.1875,0 z m -4.28125,1.875 -7.1875,7.1875 1,1 6.1875,-6.1875 0,-2 z" filter="url(#filter10487)" opacity=".6"/></g></g></svg>