<svg xmlns="http://www.w3.org/2000/svg" xmlns:svg="http://www.w3.org/2000/svg" xmlns:xlink="http://www.w3.org/1999/xlink" id="svg6475" width="22" height="22" version="1.1"><defs id="defs6477"><linearGradient id="linearGradient7004"><stop id="stop7006" offset="0" stop-color="#8ea8c5" stop-opacity="1"/><stop id="stop7008" offset="1" stop-color="#365f96" stop-opacity="1"/></linearGradient><linearGradient id="linearGradient7010" x1="1.984" x2="-3.776" y1="1.732" y2="15.516" gradientUnits="userSpaceOnUse" xlink:href="#linearGradient7004"/><linearGradient id="linearGradient7130" x1="1.984" x2="-3.776" y1="1.732" y2="15.516" gradientUnits="userSpaceOnUse" xlink:href="#linearGradient7004"/></defs><metadata id="metadata6480"/><g id="layer1" transform="translate(-364,-521.36218)"><g id="g7123" transform="translate(-37.98214,-0.06250444)"><path id="path6494" fill="url(#linearGradient7130)" fill-opacity="1" fill-rule="nonzero" stroke="#1d497d" stroke-dasharray="none" stroke-linecap="square" stroke-linejoin="round" stroke-miterlimit="4" stroke-opacity="1" stroke-width=".8" d="m 7.7678573,8.5848217 c 0,4.6229193 -3.7476166,8.3705363 -8.3705359,8.3705363 -4.6229193,0 -8.3705358,-3.747617 -8.3705358,-8.3705363 0,-4.6229193 3.7476165,-8.37053585 8.3705358,-8.37053585 4.6229193,0 8.3705359,3.74761655 8.3705359,8.37053585 z" transform="matrix(1.1399776,0,0,1.1399776,413.66918,522.63818)"/><path id="path7012" fill="#a2b52f" fill-opacity="1" stroke="none" d="m 414.36607,528.58539 0.625,1.65179 -0.9375,0.71429 -0.89286,0.80357 0.84822,1.51785 2.00893,0.89286 0.58035,3.125 0.80358,2.00893 1.02678,-0.89286 0.80357,-2.36607 0.0446,-1.38393 0.75893,-1.07143 -1.25,-1.875 -1.25,-1.25 -1.60714,-1.38392 z"/><path id="path7014" fill="#a2b52f" fill-opacity="1" stroke="none" d="m 406.86607,533.58539 0.58036,2.8125 0.625,0.80358 0.75893,2.36607 0.80357,0.53571 0.58036,-2.27678 0.89285,-0.89286 0.71429,-0.89286 -1.16072,-1.16071 -0.98214,-1.25 -1.20536,-0.66965 -1.83035,-0.26785 -0.80357,-1.11607 -0.84822,-0.66965 1.875,-0.75893 0.625,-1.02678 0.9375,-0.66964 1.38393,-0.89286 0.58036,-0.98214 -2.09822,-0.40179 -0.84821,-0.80357 -1.16072,1.42857 -1.16071,1.38393 -0.3125,1.69643 -0.53571,1.02678 2.09821,1.78572 z"/><path id="path7016" fill="#a2b52f" fill-opacity="1" stroke="none" d="m 410.16964,524.29968 1.20536,1.875 1.20536,-0.9375 1.5625,-0.98214 -0.22322,-0.9375 -2.76785,0.0893 z"/><path id="path7018" fill="#a2b52f" fill-opacity="1" stroke="none" d="m 415.125,527.82647 1.42857,-0.40179 -0.0446,-1.78571 1.33929,-0.35715 1.02678,0.35715 0.89286,1.25 1.29464,1.60714 0.75893,1.83036 -0.13393,1.11607 -1.42857,1.02678 -0.98214,-1.47321 -0.89286,-1.83036 -1.33929,-0.75893 z"/></g></g></svg>