<svg xmlns="http://www.w3.org/2000/svg" xmlns:xlink="http://www.w3.org/1999/xlink" id="svg10519" width="22" height="22" version="1.1"><defs id="defs10521"><linearGradient id="linearGradient11142" x1="819.43" x2="818.53" y1="729.21" y2="728.31" gradientTransform="translate(66.374 4.6114)" gradientUnits="userSpaceOnUse"><stop id="stop11079" offset="0" stop-color="#a48757"/><stop id="stop11081" offset="1" stop-color="#eeeac6"/></linearGradient><linearGradient id="linearGradient11144" x1="814.56" x2="813.53" y1="726.62" y2="725.49" gradientTransform="translate(55.608 8.9694)" gradientUnits="userSpaceOnUse"><stop id="stop11105" offset="0" stop-color="#b8b8b7"/><stop id="stop11107" offset="1" stop-color="#a3a4a3"/></linearGradient><radialGradient id="radialGradient11146" cx="6.715" cy="4.396" r="5.428" gradientUnits="userSpaceOnUse"><stop id="stop11113" offset="0" stop-color="#e6edf5"/><stop id="stop11115" offset="1" stop-color="#7da2cc" stop-opacity=".583"/></radialGradient></defs><metadata id="metadata10524"/><g id="layer1" transform="translate(-823.29 -718.51)"><g id="g11129" transform="matrix(.87946 0 0 .87946 60.517 83.917)"><rect id="rect10538" width="14.186" height="17.015" x="869.68" y="725.57" fill="#fefefe" stroke="#878984" stroke-linejoin="round"/><rect id="rect11048" width="11.049" height="14.098" x="871.19" y="726.98" fill="#eaeaea"/><g fill="#c6c6c5"><rect id="rect11050" width="8.971" height="1.105" x="872.24" y="729.06"/><rect id="rect11052" width="8.971" height="1.105" x="872.24" y="731.06"/><rect id="rect11054" width="8.971" height="1.105" x="872.24" y="735.06"/></g><g id="g11125"><path id="path11075" fill="url(#linearGradient11142)" stroke="#804f01" stroke-miterlimit="2" stroke-width=".7" d="m880 736.45 9.3029-9.4354 2.4528 2.3423-9.3029 9.2587-3.9775 1.6794z"/><path id="path11085" d="m878.69 738.79-1.0275 2.3312 2.3754-1.0938z"/></g><g id="g11121" stroke="#878984"><path id="path11097" fill="url(#linearGradient11144)" stroke-width=".8" d="m870.4 732.43-2.4558 2.4558v1.9905h1.6286l2.6367-2.6367"/><path id="path11101" fill="url(#radialGradient11146)" d="m11.91 5.9796a4.9277 4.9277 0 0 1 -4.9273 4.9274 4.9277 4.9277 0 0 1 -4.9277 -4.9274 4.9277 4.9277 0 0 1 4.9277 -4.9276 4.9277 4.9277 0 0 1 4.9273 4.9276z" transform="matrix(.92061 0 0 .92061 867.89 724.95)"/></g></g></g></svg>